<svg xmlns="http://www.w3.org/2000/svg" width="1600" height="900" viewBox="0 0 1600 900">
<defs>
<linearGradient id="g" x1="0" x2="1" y1="0" y2="1">
<stop offset="0%" stop-color="#06152f"/><stop offset="50%" stop-color="#0f326d"/><stop offset="100%" stop-color="#1489d6"/>
</linearGradient>
</defs>
<rect width="1600" height="900" fill="url(#g)"/>
<g opacity=".32" fill="none" stroke="#ffffff" stroke-width="2.5">
<circle cx="1130" cy="380" r="280"/><circle cx="1130" cy="380" r="210"/><circle cx="1130" cy="380" r="140"/>
<path d="M850 380h560"/><path d="M882 260c130 60 285 60 500 0"/><path d="M882 500c130-60 285-60 500 0"/>
<path d="M990 130c40 120 50 350 0 500"/><path d="M1130 100c25 150 25 410 0 560"/><path d="M1270 130c-40 120-50 350 0 500"/>
</g>
<g fill="#fff">
<circle cx="930" cy="260" r="7"/><circle cx="1040" cy="180" r="8"/><circle cx="1180" cy="170" r="13"/><circle cx="1300" cy="220" r="10"/>
<circle cx="900" cy="380" r="9"/><circle cx="1060" cy="380" r="13"/><circle cx="1230" cy="380" r="10"/><circle cx="1360" cy="380" r="9"/>
<circle cx="970" cy="540" r="10"/><circle cx="1120" cy="590" r="12"/><circle cx="1290" cy="535" r="8"/>
</g>
</svg>